#N canvas 60 60 820 640 12;
#X text 20 15 sweat-synth receiver — XIAO(SweatSynth)を BLE-MIDI で接続して開く;
#X text 20 33 Note=声部進行 / CC74=明るさ / CC7=音量 / vanilla Pd のみ;
#X obj 30 70 notein;
#X obj 30 100 stripnote;
#X obj 30 130 t b f;
#X obj 30 160 mtof;
#X obj 150 130 / 127;
#X obj 150 160 sig~;
#X obj 30 195 * 1;
#X obj 110 195 * 2.01;
#X obj 190 195 * 3.04;
#X obj 30 225 osc~;
#X obj 110 225 osc~;
#X obj 190 225 osc~;
#X obj 110 255 *~ 0.5;
#X obj 190 255 *~ 0.28;
#X obj 30 285 +~;
#X obj 30 312 +~;
#X msg 320 160 1 5, 0 3500;
#X obj 320 195 vline~;
#X obj 30 342 *~;
#X obj 30 372 *~;
#X obj 470 70 ctlin 74;
#X obj 470 100 * 38;
#X obj 470 130 + 300;
#X obj 30 402 lop~ 1200;
#X obj 600 200 osc~ 100;
#X obj 600 228 osc~ 112.2;
#X obj 600 256 osc~ 141.4;
#X obj 600 286 +~;
#X obj 600 314 +~;
#X obj 600 344 *~ 0.06;
#X obj 30 432 +~;
#X obj 300 432 delwrite~ swrev 130;
#X obj 300 462 delread~ swrev 90;
#X obj 300 492 *~ 0.32;
#X obj 30 462 +~;
#X obj 470 170 ctlin 7;
#X obj 470 200 / 127;
#X obj 470 230 sig~;
#X obj 30 492 *~;
#X obj 30 522 *~ 0.6;
#X obj 30 552 dac~;
#X connect 2 0 3 0;
#X connect 2 1 3 1;
#X connect 3 0 4 0;
#X connect 4 1 5 0;
#X connect 3 1 6 0;
#X connect 6 0 7 0;
#X connect 5 0 8 0;
#X connect 5 0 9 0;
#X connect 5 0 10 0;
#X connect 8 0 11 0;
#X connect 9 0 12 0;
#X connect 10 0 13 0;
#X connect 12 0 14 0;
#X connect 13 0 15 0;
#X connect 11 0 16 0;
#X connect 14 0 16 1;
#X connect 16 0 17 0;
#X connect 15 0 17 1;
#X connect 4 0 18 0;
#X connect 18 0 19 0;
#X connect 17 0 20 0;
#X connect 19 0 20 1;
#X connect 20 0 21 0;
#X connect 7 0 21 1;
#X connect 22 0 23 0;
#X connect 23 0 24 0;
#X connect 21 0 25 0;
#X connect 24 0 25 1;
#X connect 26 0 29 0;
#X connect 27 0 29 1;
#X connect 29 0 30 0;
#X connect 28 0 30 1;
#X connect 30 0 31 0;
#X connect 25 0 32 0;
#X connect 31 0 32 1;
#X connect 32 0 33 0;
#X connect 34 0 35 0;
#X connect 35 0 33 0;
#X connect 32 0 36 0;
#X connect 34 0 36 1;
#X connect 37 0 38 0;
#X connect 38 0 39 0;
#X connect 36 0 40 0;
#X connect 39 0 40 1;
#X connect 40 0 41 0;
#X connect 41 0 42 0;
#X connect 41 0 42 1;
